<?xml version="1.0" standalone="no"?>
<!DOCTYPE svg PUBLIC "-//W3C//DTD SVG 20010904//EN"
 "http://www.w3.org/TR/2001/REC-SVG-20010904/DTD/svg10.dtd">
<svg version="1.0" xmlns="http://www.w3.org/2000/svg"
 width="260.000000pt" height="260.000000pt" viewBox="0 0 260.000000 260.000000"
 preserveAspectRatio="xMidYMid meet">
<metadata>
Created by potrace 1.11, written by Peter Selinger 2001-2013
</metadata>
<g transform="translate(0.000000,260.000000) scale(0.100000,-0.100000)"
fill="#000000" stroke="none">
<path d="M1566 2515 c48 -61 139 -204 168 -265 l27 -55 -53 60 c-29 33 -78 86
-108 118 l-55 57 -105 21 c-153 29 -339 47 -564 55 l-200 7 96 -86 c101 -92
232 -228 249 -259 10 -18 9 -18 -18 -5 -15 8 -65 26 -111 40 -80 25 -86 25
-166 12 -83 -13 -309 -70 -333 -84 -9 -4 16 -22 71 -51 47 -24 111 -63 142
-88 62 -49 61 -54 -15 -66 -63 -10 -253 -73 -343 -113 l-78 -36 59 -27 c77
-37 84 -50 29 -50 l-44 0 12 -107 c14 -120 17 -189 15 -339 l-1 -101 -107 -7
c-59 -4 -113 -12 -120 -18 -8 -6 -13 -33 -13 -68 0 -54 3 -60 33 -84 60 -48
64 -53 71 -107 11 -80 54 -247 76 -290 26 -49 80 -93 154 -123 41 -16 81 -44
122 -83 175 -167 518 -283 839 -283 328 0 675 119 848 291 31 32 67 61 80 65
40 12 122 56 145 78 13 11 33 38 43 58 18 35 68 229 84 320 4 28 13 42 33 52
45 23 65 53 69 103 7 74 -4 82 -127 91 l-105 7 1 170 c1 153 3 173 22 205 11
19 24 53 28 74 6 36 5 39 -12 32 -10 -4 -35 -10 -54 -13 l-35 -6 33 28 c53 45
63 74 69 212 l6 126 -57 -47 c-60 -48 -154 -101 -164 -92 -3 3 4 37 15 75 20
69 20 70 1 112 -10 24 -44 81 -76 127 l-56 85 -17 -87 c-10 -47 -19 -92 -22
-99 -2 -6 -20 21 -41 61 -48 95 -115 204 -135 219 -44 35 -223 154 -276 183
l-60 34 31 -39z m-446 -85 c123 -11 349 -46 384 -60 35 -13 216 -197 325 -328
110 -135 110 -135 92 -245 l-8 -48 49 48 49 48 -14 -40 c-48 -135 -51 -139
-148 -185 -77 -35 -270 -110 -285 -110 -2 0 10 13 28 29 28 25 32 35 36 92 4
72 -22 268 -39 284 -8 7 -9 -3 -4 -35 3 -25 2 -99 -4 -165 -10 -118 -11 -120
-43 -147 -18 -15 -45 -34 -60 -43 l-27 -15 25 43 c24 44 24 44 9 125 -9 44
-24 105 -35 136 -23 68 -72 178 -76 173 -2 -2 7 -59 20 -128 13 -68 27 -153
31 -189 6 -64 6 -66 -37 -130 l-42 -65 -6 41 c-4 27 -21 62 -50 100 -45 61
-190 208 -197 200 -3 -2 25 -41 61 -87 81 -102 129 -190 121 -221 -5 -22 -10
-19 -73 40 -37 35 -96 83 -132 107 -72 48 -205 115 -230 115 -13 1 -13 2 1 10
16 9 147 -2 191 -16 35 -11 17 15 -59 86 -95 88 -209 165 -328 222 l-89 43 74
17 c141 33 166 33 262 -2 102 -37 237 -105 318 -160 33 -22 61 -40 64 -40 7 0
-87 135 -178 255 -33 44 -98 119 -145 168 l-85 87 70 0 c38 0 121 -5 184 -10z
m981 -820 c14 -47 3 -64 -68 -110 l-43 -27 64 -32 c62 -30 63 -32 70 -77 3
-26 6 -82 6 -124 l0 -77 -137 -7 c-158 -8 -441 -33 -526 -46 -31 -5 -70 -18
-85 -28 -48 -34 -97 -35 -171 -3 -52 23 -97 32 -216 45 -124 13 -439 36 -507
36 -16 0 -18 10 -18 73 0 39 3 96 6 124 6 46 11 55 39 71 17 11 49 25 70 32
l39 13 -35 18 c-19 9 -49 33 -67 52 l-34 35 48 16 c61 21 109 20 214 -3 84
-19 246 -73 325 -107 l40 -18 -50 -7 c-27 -4 -77 -8 -110 -9 -82 -2 -55 -11
163 -56 l177 -36 90 17 c178 33 441 134 610 233 39 22 75 41 82 41 7 1 18 -17
24 -39z m-1326 -620 c167 -15 327 -40 356 -56 15 -7 29 -24 33 -37 12 -47 -26
-278 -61 -372 -33 -89 -82 -106 -268 -94 -213 13 -444 67 -525 122 -50 33 -70
75 -107 225 -45 185 -44 204 17 215 49 9 447 7 555 -3z m1600 2 l40 -8 -1 -54
c-1 -57 -43 -242 -68 -301 -30 -71 -93 -107 -256 -149 -111 -28 -268 -49 -391
-52 -170 -4 -200 21 -239 198 -23 102 -36 240 -26 277 4 16 17 29 35 35 40 14
214 41 331 51 120 10 522 12 575 3z m-1037 -175 c6 -7 18 -55 26 -107 22 -136
61 -254 97 -294 47 -54 105 -71 234 -70 61 1 139 6 175 13 36 6 79 14 95 17
23 4 15 -4 -35 -33 -337 -201 -833 -219 -1195 -44 -55 27 -109 56 -120 65
l-20 17 20 -5 c11 -3 65 -13 120 -21 184 -28 314 -15 380 36 44 36 90 167 115
334 8 48 19 85 28 93 20 16 67 16 80 -1z"/>
</g>
</svg>
